<svg xmlns="http://www.w3.org/2000/svg" viewBox="0 0 651.79 658.88"><title>Design</title><g id="Capa_2" data-name="Capa 2"><g id="Capa_1-2" data-name="Capa 1"><circle cx="405.79" cy="246" r="246" style="fill:#09c492;opacity:0.2"/><path d="M378.67,287.34a30.91,30.91,0,1,0-30.33-36.74H250.57l-42.29-42.27a5.83,5.83,0,0,0-8.25,0L157.76,250.6H61.24a30.91,30.91,0,1,0,0,11.68h79.87c-42.79,16.8-75.55,50.47-88.06,91.6H22.16a5.84,5.84,0,0,0-5.84,5.83v62.21a5.84,5.84,0,0,0,5.83,5.83H84.37a5.83,5.83,0,0,0,5.83-5.83V359.71a5.84,5.84,0,0,0-5.84-5.83H65.27c14-41.55,51-74.25,97.69-86.41L200,304.54a5.82,5.82,0,0,0,8.24,0L245,267.86c46,12.48,82.3,44.93,96.15,86H322a5.8,5.8,0,0,0-5.83,5.83v62.21a5.84,5.84,0,0,0,5.84,5.83h62.2a5.84,5.84,0,0,0,5.83-5.83V359.71a5.83,5.83,0,0,0-5.83-5.83H353.34c-12.52-41.17-45.34-74.8-88.18-91.61h83.18a30.94,30.94,0,0,0,30.33,25.07Zm0-50.14a19.24,19.24,0,1,1-19.24,19.23A19.25,19.25,0,0,1,378.67,237.2ZM30.91,275.67a19.24,19.24,0,1,1,19.24-19.23A19.26,19.26,0,0,1,30.91,275.67Zm47.63,89.87v50.54H28V365.54Zm125.62-73.37-35.73-35.73,35.73-35.73,35.74,35.73Zm174.23,73.37v50.54H327.85V365.54Z" style="fill:#09c492"/><path d="M209.7,366.62a6.06,6.06,0,0,0-9.84,0l-93.63,147a5.84,5.84,0,0,0-.33,5.67l38.24,79.35a30.6,30.6,0,0,0,7.66,60.24h106a30.6,30.6,0,0,0,7.65-60.24l38.24-79.35a5.82,5.82,0,0,0-.33-5.67ZM204.79,501.8A14.17,14.17,0,1,1,190.62,516,14.18,14.18,0,0,1,204.79,501.8Zm71.94,126.45a19,19,0,0,1-19,19h-106a19,19,0,1,1,0-37.92h106A19,19,0,0,1,276.73,628.25ZM253,597.63H156.61l-38.79-80.48,81.12-127.38V490.82a25.83,25.83,0,1,0,11.66,0V389.77l81.13,127.38Z" style="fill:#09c492"/></g></g></svg>