<svg xmlns="http://www.w3.org/2000/svg" viewBox="0 0 572.21 651.43"><title>MobileApp</title><g id="Capa_2" data-name="Capa 2"><g id="Capa_1-2" data-name="Capa 1"><circle cx="326.21" cy="246" r="246" style="fill:#09c492;opacity:0.2"/><path d="M36.8,477.33a12.29,12.29,0,0,0,2.41,6.26,12.42,12.42,0,0,0,5.35,4.07L55.29,492a79.18,79.18,0,0,0,6.16,14.8L56.89,517.4a12.3,12.3,0,0,0,1.82,12.81c1.73,2.06,3.56,4.07,5.49,6s3.92,3.76,6,5.5h0A12.3,12.3,0,0,0,83,543.51L93.64,539a78.85,78.85,0,0,0,14.81,6.15l4.29,10.73a12.24,12.24,0,0,0,10.31,7.76c2.7.25,5.43.36,8.15.36s5.46-.11,8.14-.36a12.27,12.27,0,0,0,10.33-7.76L154,545.1a78.48,78.48,0,0,0,14.8-6.15l10.65,4.56a12.39,12.39,0,0,0,6.67.9,12.2,12.2,0,0,0,6.14-2.73c2.06-1.72,4.07-3.56,6-5.48s3.76-3.92,5.5-6h0a12.31,12.31,0,0,0,1.81-12.8L201,506.75a78.48,78.48,0,0,0,6.15-14.8l10.73-4.29a12.27,12.27,0,0,0,7.76-10.32c.25-2.69.36-5.42.36-8.15s-.11-5.46-.36-8.13h0a12.27,12.27,0,0,0-7.76-10.33l-10.73-4.3a78.48,78.48,0,0,0-6.15-14.8L205.52,421h0a12.27,12.27,0,0,0-1.82-12.79c-1.72-2.07-3.56-4.07-5.5-6s-3.94-3.77-6-5.5a12.25,12.25,0,0,0-12.8-1.81l-10.65,4.55h0a79.14,79.14,0,0,0-14.8-6.15l-4.29-10.73a12.31,12.31,0,0,0-10.32-7.76,88.53,88.53,0,0,0-16.28,0,12.27,12.27,0,0,0-10.33,7.76l-4.29,10.73a79.52,79.52,0,0,0-14.81,6.15L83,394.89a12.25,12.25,0,0,0-12.83,1.81q-3.1,2.6-6,5.49c-1.92,1.92-3.76,3.92-5.5,6A12.3,12.3,0,0,0,56.89,421l4.55,10.65h0a79.82,79.82,0,0,0-6.15,14.8l-10.73,4.3A12.28,12.28,0,0,0,36.8,461c-.25,2.69-.36,5.43-.36,8.15s.11,5.46.36,8.14Zm14.4-13.56,12.87-5.14h0a7.28,7.28,0,0,0,4.37-5,64.21,64.21,0,0,1,7.36-17.75,7.29,7.29,0,0,0,.47-6.64L70.8,416.45c1.18-1.35,2.42-2.68,3.7-3.95s2.6-2.53,4-3.71l12.77,5.47a7.3,7.3,0,0,0,6.63-.46,64.23,64.23,0,0,1,17.75-7.37,7.28,7.28,0,0,0,5-4.37l5.15-12.87a78.29,78.29,0,0,1,10.83,0l5.15,12.87a7.28,7.28,0,0,0,5,4.37,64.4,64.4,0,0,1,17.76,7.36,7.24,7.24,0,0,0,6.63.46l12.77-5.47c1.36,1.19,2.68,2.42,4,3.71s2.51,2.59,3.7,4l-5.47,12.77a7.27,7.27,0,0,0,.47,6.63A64.21,64.21,0,0,1,194,453.6a7.29,7.29,0,0,0,4.38,5l12.86,5.15c.13,1.79.19,3.64.19,5.41s-.06,3.65-.19,5.42l-12.86,5.14a7.33,7.33,0,0,0-4.38,5,64.21,64.21,0,0,1-7.36,17.75,7.32,7.32,0,0,0-.46,6.64l5.47,12.77c-1.18,1.35-2.42,2.68-3.71,4s-2.6,2.53-4,3.71l-12.77-5.47h0a7.32,7.32,0,0,0-6.64.46A63.87,63.87,0,0,1,146.8,532a7.27,7.27,0,0,0-5,4.37l-5.14,12.87h0a78.43,78.43,0,0,1-10.84,0l-5.14-12.86h0a7.28,7.28,0,0,0-5-4.37,64.27,64.27,0,0,1-17.76-7.36,7.3,7.3,0,0,0-6.63-.46L78.47,529.6c-1.36-1.18-2.69-2.42-4-3.71s-2.52-2.6-3.71-3.95l5.47-12.77a7.26,7.26,0,0,0-.46-6.64,64.41,64.41,0,0,1-7.37-17.75,7.28,7.28,0,0,0-4.37-5L51.2,474.61c-.12-1.78-.18-3.61-.18-5.42s.06-3.64.18-5.42Z" style="fill:#09c492"/><path d="M29.16,214.07A29.16,29.16,0,0,0,0,243.23v379a29.16,29.16,0,0,0,29.16,29.16h204.1a29.16,29.16,0,0,0,29.15-29.16v-379a29.16,29.16,0,0,0-29.15-29.16ZM247.83,578.53H14.58V287H247.83Zm-14.58,58.32H29.16a14.58,14.58,0,0,1-14.58-14.58V593.11H247.83v29.16a14.58,14.58,0,0,1-14.58,14.58Zm14.58-393.62v29.16H14.58V243.23a14.56,14.56,0,0,1,14.58-14.57h204.1a14.56,14.56,0,0,1,14.58,14.57Z" style="fill:#09c492"/><path d="M89.6,357.72a7.29,7.29,0,0,0,10.31-10.31L83.2,330.7,99.91,314h0a7.29,7.29,0,0,0-10.31-10.3L67.74,325.54a7.28,7.28,0,0,0,0,10.31Z" style="fill:#09c492"/><path d="M162.5,357.72a7.3,7.3,0,0,0,10.31,0l21.87-21.87a7.3,7.3,0,0,0,0-10.31l-21.87-21.86A7.29,7.29,0,0,0,162.5,314l16.72,16.71L162.5,347.41a7.3,7.3,0,0,0,0,10.31Z" style="fill:#09c492"/><path d="M121.62,359.48a7.29,7.29,0,0,0,9.21-4.61l14.58-43.74h0a7.3,7.3,0,0,0-13.85-4.6L117,350.26a7.3,7.3,0,0,0,4.64,9.22Z" style="fill:#09c492"/><path d="M131.21,520.22a51,51,0,1,0,0-102.05,7.29,7.29,0,0,0,0,14.58,36.45,36.45,0,1,1-24.3,9.28,7.29,7.29,0,1,0-9.72-10.86,51,51,0,0,0,34,89.05Z" style="fill:#09c492"/><path d="M103.21,241.08H93.87a9.34,9.34,0,0,0,0,18.67h9.34a9.34,9.34,0,0,0,0-18.67Z" style="fill:#09c492"/><path d="M168.54,241.08h-28a9.34,9.34,0,1,0,0,18.67h28a9.34,9.34,0,0,0,0-18.67Z" style="fill:#09c492"/><path d="M145.79,607.69H116.63a7.29,7.29,0,0,0,0,14.58h29.16a7.29,7.29,0,1,0,0-14.58Z" style="fill:#09c492"/></g></g></svg>