<svg xmlns="http://www.w3.org/2000/svg" viewBox="0 0 702 662.53"><title>Programing</title><g id="Capa_2" data-name="Capa 2"><g id="Capa_1-2" data-name="Capa 1"><path d="M154.14,448.31H174.9l51.3-137.09H205.13Z" style="fill:#09c492"/><path d="M232.6,353.06l67.18,26.87L232.6,406.49v21.07l92.82-36.95V369.24L232.6,332Z" style="fill:#09c492"/><path d="M54.6,390.6l93.12,36.95V406.48L80.55,379.92l67.17-26.87V332L54.6,369.23Z" style="fill:#09c492"/><path d="M515.21,203H31A30.93,30.93,0,0,0,0,233.76V559a31,31,0,0,0,31,31H209.49c-7.88,18.15-25.44,37.65-42.51,50.7H146.16a10.92,10.92,0,0,0,0,21.84H400a10.92,10.92,0,1,0,0-21.84H379c-16.65-12.91-34.41-32.25-42.36-50.7H515.2A30.94,30.94,0,0,0,546,559V233.77A30.84,30.84,0,0,0,515.2,203ZM21.84,233.76A9.06,9.06,0,0,1,31,224.81h484.2a8.84,8.84,0,0,1,8.95,8.95V487.12H21.84Zm324.4,406.89H200c14.69-15,27.49-33,32.91-50.66h80.36c5.44,17.56,18.24,35.6,33,50.66ZM524.17,559a9,9,0,0,1-9,9.18H31A9.09,9.09,0,0,1,21.84,559V509H524.16Z" style="fill:#09c492"/><path d="M491.41,258.8H395.73a10.92,10.92,0,0,0,0,21.84h95.68a10.92,10.92,0,1,0,0-21.84Z" style="fill:#09c492"/><path d="M317.47,258.8H257.42a10.92,10.92,0,0,0,0,21.84h60.05a10.92,10.92,0,0,0,0-21.84Z" style="fill:#09c492"/><path d="M164.59,269.72a10.91,10.91,0,0,0-10.92-10.92H54.6a10.92,10.92,0,0,0,0,21.84h99.07A10.91,10.91,0,0,0,164.59,269.72Z" style="fill:#09c492"/><path d="M491.41,316.31H389.35a10.92,10.92,0,0,0,0,21.84H491.41a10.92,10.92,0,0,0,0-21.84Z" style="fill:#09c492"/><path d="M491.41,373.79H375.21a10.92,10.92,0,1,0,0,21.84h116.2a10.92,10.92,0,0,0,0-21.84Z" style="fill:#09c492"/><path d="M491.41,431.29H375.21a10.92,10.92,0,1,0,0,21.83h116.2a10.92,10.92,0,1,0,0-21.84Z" style="fill:#09c492"/><path d="M69.29,546.16c3.52-3.56,4.6-9.58,0-15.3a10.9,10.9,0,0,0-15.5,0,10.55,10.55,0,0,0,0,15.3A10.78,10.78,0,0,0,69.29,546.16Z" style="fill:#09c492"/><path d="M111.44,546.16a10.53,10.53,0,0,0,0-15.3,11,11,0,0,0-15.3,0c-4.23,4.24-4.47,11.22,0,15.3A10.59,10.59,0,0,0,111.44,546.16Z" style="fill:#09c492"/><path d="M138.53,546.16c3.4,4.22,11.78,4.37,15.3,0a10.59,10.59,0,0,0,0-15.3c-4.57-4.56-12.25-3.78-15.3,0C133.91,535,134.41,542.84,138.53,546.16Z" style="fill:#09c492"/><circle cx="456" cy="246" r="246" style="fill:#09c492;opacity:0.2"/></g></g></svg>