<svg xmlns="http://www.w3.org/2000/svg" viewBox="0 0 731.52 664.49"><title>WebSite</title><g id="Capa_2" data-name="Capa 2"><g id="Capa_1-2" data-name="Capa 1"><path d="M500.7,201H42.32A42.37,42.37,0,0,0,0,243.34V554a42.37,42.37,0,0,0,42.32,42.32H222.39a380.17,380.17,0,0,1-42,51.71H137.12a8.23,8.23,0,1,0,0,16.46H405.9a8.23,8.23,0,1,0,0-16.46H362.61a378.58,378.58,0,0,1-41.95-51.71h180A42.38,42.38,0,0,0,543,554V243.34A42.38,42.38,0,0,0,500.71,201ZM42.32,217.48H500.71a25.88,25.88,0,0,1,25.87,25.84V533.43H16.47V243.34a25.88,25.88,0,0,1,25.86-25.86ZM340,648H203a392.53,392.53,0,0,0,39-51.71H301A395.82,395.82,0,0,0,340,648Zm160.7-68.19H42.32A25.89,25.89,0,0,1,16.46,554v-4.11H526.57V554a25.89,25.89,0,0,1-25.86,25.85Z" style="fill:#09c492"/><path d="M98.17,505.67a8.24,8.24,0,0,0,15.35,0l18.27-47.06a8.55,8.55,0,0,0,.56-3V267.34A17.36,17.36,0,0,0,115,250H96.71a17.38,17.38,0,0,0-17.36,17.33v188.3a8.05,8.05,0,0,0,.56,2.95ZM105.84,480l-7.19-18.57h14.4ZM96.71,266.44l19.18.89v12.34H96.16Zm19.18,29.7V444.93H95.82V296.14Z" style="fill:#09c492"/><path d="M258.58,510.89h196.9a8.22,8.22,0,0,0,8.23-8.21V261.29a8.23,8.23,0,0,0-14.61-5.21L252.2,497.47a8.22,8.22,0,0,0,6.38,13.42Zm34.13-37,3.43,3a8.2,8.2,0,0,0,5.41,2,8.11,8.11,0,0,0,6.2-2.82,8.21,8.21,0,0,0-.8-11.6l-3.83-3.35,20.07-24.62,3.48,3.06a8.23,8.23,0,1,0,10.81-12.4l-3.88-3.41,20.07-24.59,3.53,3.09A8.24,8.24,0,0,0,368,389.81l-3.92-3.41,20.08-24.62,3.56,3.12a8.23,8.23,0,0,0,10.81-12.4l-4-3.49,20.08-24.59,3.61,3.16a8.17,8.17,0,0,0,5.4,2,8.22,8.22,0,0,0,5.41-14.42l-4-3.51,22.23-27.24V494.5H275.91Z" style="fill:#09c492"/><path d="M420.84,358.57a8.31,8.31,0,0,0-9.14,2.55l-80.73,99a8.17,8.17,0,0,0-1.05,8.72,8.28,8.28,0,0,0,7.43,4.7h80.71a8.23,8.23,0,0,0,8.23-8.25V366.33a8.19,8.19,0,0,0-5.45-7.76Zm-11,98.48H354.7l55.15-67.6Z" style="fill:#09c492"/><path d="M164.16,250H196.7v16.45H164.16Z" style="fill:#09c492"/><path d="M216.21,250h32.54v16.45H216.21Z" style="fill:#09c492"/><path d="M268.24,250h32.54v16.45H268.24Z" style="fill:#09c492"/><path d="M320.26,250H352.8v16.45H320.26Z" style="fill:#09c492"/><path d="M372.29,250h32.54v16.45H372.29Z" style="fill:#09c492"/><path d="M143.37,494.47H175.9v16.45H143.37Z" style="fill:#09c492"/><path d="M195.4,494.47h32.54v16.45H195.4Z" style="fill:#09c492"/><circle cx="485.52" cy="246" r="246" style="fill:#09c492;opacity:0.2"/></g></g></svg>